<mxfile host="app.diagrams.net" modified="2024-03-30T08:31:34.080Z" agent="Mozilla/5.0 (Windows NT 10.0; Win64; x64) AppleWebKit/537.36 (KHTML, like Gecko) Chrome/123.0.0.0 Safari/537.36" etag="11q7S34VH7dIFocYdid3" version="24.0.4" type="github">
  <diagram name="第 1 页" id="X6CPHII6zNqJnwM1cmjS">
    <mxGraphModel dx="1221" dy="652" grid="1" gridSize="10" guides="1" tooltips="1" connect="1" arrows="1" fold="1" page="1" pageScale="1" pageWidth="827" pageHeight="1169" math="0" shadow="0">
      <root>
        <mxCell id="0" />
        <mxCell id="1" parent="0" />
        <mxCell id="2FOOZEn9cOe2LaKp9jPM-5" style="edgeStyle=orthogonalEdgeStyle;rounded=0;orthogonalLoop=1;jettySize=auto;html=1;exitX=0.75;exitY=1;exitDx=0;exitDy=0;entryX=0.75;entryY=0;entryDx=0;entryDy=0;" edge="1" parent="1" source="2FOOZEn9cOe2LaKp9jPM-1" target="2FOOZEn9cOe2LaKp9jPM-2">
          <mxGeometry relative="1" as="geometry" />
        </mxCell>
        <mxCell id="2FOOZEn9cOe2LaKp9jPM-1" value="服务器" style="rounded=0;whiteSpace=wrap;html=1;" vertex="1" parent="1">
          <mxGeometry x="310" y="100" width="150" height="80" as="geometry" />
        </mxCell>
        <mxCell id="2FOOZEn9cOe2LaKp9jPM-4" style="edgeStyle=orthogonalEdgeStyle;rounded=0;orthogonalLoop=1;jettySize=auto;html=1;exitX=0.25;exitY=0;exitDx=0;exitDy=0;entryX=0.25;entryY=1;entryDx=0;entryDy=0;" edge="1" parent="1" source="2FOOZEn9cOe2LaKp9jPM-2" target="2FOOZEn9cOe2LaKp9jPM-1">
          <mxGeometry relative="1" as="geometry" />
        </mxCell>
        <mxCell id="2FOOZEn9cOe2LaKp9jPM-2" value="客户端" style="rounded=0;whiteSpace=wrap;html=1;" vertex="1" parent="1">
          <mxGeometry x="310" y="380" width="150" height="100" as="geometry" />
        </mxCell>
        <mxCell id="2FOOZEn9cOe2LaKp9jPM-6" value="登录信息" style="text;strokeColor=none;align=center;fillColor=none;html=1;verticalAlign=middle;whiteSpace=wrap;rounded=0;" vertex="1" parent="1">
          <mxGeometry x="270" y="320" width="60" height="30" as="geometry" />
        </mxCell>
        <mxCell id="2FOOZEn9cOe2LaKp9jPM-9" value="session_id" style="text;html=1;align=center;verticalAlign=middle;resizable=0;points=[];autosize=1;strokeColor=none;fillColor=none;" vertex="1" parent="1">
          <mxGeometry x="440" y="218" width="80" height="30" as="geometry" />
        </mxCell>
        <mxCell id="2FOOZEn9cOe2LaKp9jPM-13" value="写入用户cookie" style="ellipse;whiteSpace=wrap;html=1;" vertex="1" parent="1">
          <mxGeometry x="440" y="290" width="120" height="80" as="geometry" />
        </mxCell>
        <mxCell id="2FOOZEn9cOe2LaKp9jPM-14" value="验证后，在session保存" style="ellipse;whiteSpace=wrap;html=1;fillColor=#dae8fc;strokeColor=#6c8ebf;" vertex="1" parent="1">
          <mxGeometry x="200" y="190" width="120" height="80" as="geometry" />
        </mxCell>
        <mxCell id="2FOOZEn9cOe2LaKp9jPM-15" value="用户认证" style="text;html=1;align=center;verticalAlign=middle;resizable=0;points=[];autosize=1;strokeColor=none;fillColor=none;fontSize=16;" vertex="1" parent="1">
          <mxGeometry x="180" y="70" width="90" height="30" as="geometry" />
        </mxCell>
      </root>
    </mxGraphModel>
  </diagram>
</mxfile>
